<svg width="354" height="787" viewBox="0 0 354 787" fill="none" xmlns="http://www.w3.org/2000/svg">
<path d="M263.558 193.916L0 378.451L12.0144 307.759C20.4764 257.903 48.5765 213.555 89.9683 184.535L353.567 0L341.552 70.6927C333.09 120.549 304.99 164.896 263.598 193.916H263.558Z" fill="#1676BC"/>
<path d="M263.558 396.214L0 580.75L12.0144 510.057C20.4764 460.201 48.5765 415.853 89.9683 386.834L353.527 202.298L341.512 272.991C333.05 322.847 304.95 367.195 263.558 396.214Z" fill="#EE322B"/>
<path d="M263.558 602.425L0 787L12.0144 716.307C20.4764 666.451 48.5765 622.104 89.9683 593.084L353.527 408.549L341.512 479.241C333.05 529.097 304.95 573.445 263.558 602.464V602.425Z" fill="#1676BC"/>
</svg>
